<?xml version="1.0" encoding="UTF-8" standalone="no"?>
<svg
   xmlns:dc="http://purl.org/dc/elements/1.1/"
   xmlns:cc="http://creativecommons.org/ns#"
   xmlns:rdf="http://www.w3.org/1999/02/22-rdf-syntax-ns#"
   xmlns:svg="http://www.w3.org/2000/svg"
   xmlns="http://www.w3.org/2000/svg"
   xmlns:sodipodi="http://sodipodi.sourceforge.net/DTD/sodipodi-0.dtd"
   xmlns:inkscape="http://www.inkscape.org/namespaces/inkscape"
   width="24"
   height="24"
   viewBox="0 0 24 24"
   preserveAspectRatio="xMinYMid meet"
   overflow="visible"
   version="1.1"
   id="svg70"
   sodipodi:docname="icon.svg"
   inkscape:version="0.92.4 (5da689c313, 2019-01-14)">
  <metadata
     id="metadata76">
    <rdf:RDF>
      <cc:Work
         rdf:about="">
        <dc:format>image/svg+xml</dc:format>
        <dc:type
           rdf:resource="http://purl.org/dc/dcmitype/StillImage" />
        <dc:title></dc:title>
      </cc:Work>
    </rdf:RDF>
  </metadata>
  <defs
     id="defs74" />
  <sodipodi:namedview
     pagecolor="#ffffff"
     bordercolor="#666666"
     borderopacity="1"
     objecttolerance="10"
     gridtolerance="10"
     guidetolerance="10"
     inkscape:pageopacity="0"
     inkscape:pageshadow="2"
     inkscape:window-width="1920"
     inkscape:window-height="1001"
     id="namedview72"
     showgrid="false"
     inkscape:zoom="9.8333333"
     inkscape:cx="12"
     inkscape:cy="12"
     inkscape:window-x="371"
     inkscape:window-y="1341"
     inkscape:window-maximized="1"
     inkscape:current-layer="svg70" />
  <linearGradient
     id="a"
     gradientUnits="userSpaceOnUse"
     x1="14.005"
     x2="14.005"
     y2="20">
    <stop
       offset="0"
       stop-color="#95BFF8"
       id="stop2" />
    <stop
       offset=".557"
       stop-color="#84ADEF"
       id="stop4" />
    <stop
       offset="1"
       stop-color="#7CA4EB"
       id="stop6" />
  </linearGradient>
  <linearGradient
     id="b"
     gradientUnits="userSpaceOnUse"
     x1="14.005"
     y1="1"
     x2="14.005"
     y2="19">
    <stop
       offset="0"
       stop-color="#E7F4FC"
       id="stop11" />
    <stop
       offset="1"
       stop-color="#DEEFFC"
       id="stop13" />
  </linearGradient>
  <linearGradient
     id="c"
     gradientUnits="userSpaceOnUse"
     x1="14.005"
     y1="2"
     x2="14.005"
     y2="18">
    <stop
       offset="0"
       stop-color="#CEE9F9"
       id="stop18" />
    <stop
       offset="1"
       stop-color="#BBDFF8"
       id="stop20" />
  </linearGradient>
  <linearGradient
     id="d"
     gradientUnits="userSpaceOnUse"
     x1="18.31"
     x2="18.31"
     y2="7.785">
    <stop
       offset="0"
       stop-color="#95BFF8"
       id="stop25" />
    <stop
       offset=".557"
       stop-color="#84ADEF"
       id="stop27" />
    <stop
       offset="1"
       stop-color="#7CA4EB"
       id="stop29" />
  </linearGradient>
  <linearGradient
     id="e"
     gradientUnits="userSpaceOnUse"
     x1="16.3"
     y1="6.162"
     x2="18.591"
     y2="3.871">
    <stop
       offset="0"
       stop-color="#E7F4FC"
       id="stop34" />
    <stop
       offset=".518"
       stop-color="#E5F3FC"
       id="stop36" />
    <stop
       offset=".705"
       stop-color="#DEF0FB"
       id="stop38" />
    <stop
       offset=".837"
       stop-color="#D3EBFA"
       id="stop40" />
    <stop
       offset=".872"
       stop-color="#CEE9F9"
       id="stop42" />
    <stop
       offset="1"
       stop-color="#BDD8F0"
       id="stop44" />
  </linearGradient>
  <linearGradient
     id="f"
     gradientUnits="userSpaceOnUse"
     x1="11.967"
     y1="12.167"
     x2="11.967"
     y2="23.885">
    <stop
       offset="0"
       stop-color="#DDA976"
       id="stop49" />
    <stop
       offset="1"
       stop-color="#9F6B37"
       id="stop51" />
  </linearGradient>
  <linearGradient
     id="g"
     gradientUnits="userSpaceOnUse"
     x1="11.489"
     y1="13.28"
     x2="11.489"
     y2="22.934">
    <stop
       offset="0"
       stop-color="#FDA"
       id="stop56" />
    <stop
       offset="1"
       stop-color="#E3B17E"
       id="stop58" />
  </linearGradient>
  <linearGradient
     id="h"
     gradientUnits="userSpaceOnUse"
     x1="7.593"
     y1="14.414"
     x2="7.593"
     y2="21.934">
    <stop
       offset="0"
       stop-color="#F1C592"
       id="stop63" />
    <stop
       offset="1"
       stop-color="#E1AF7C"
       id="stop65" />
  </linearGradient>
  <g
     id="g14"
     transform="matrix(0.75,0,0,0.75,4.2372881e-7,0.1016948)">
    <path
       d="M 26,32 H 6 C 2.686,32 0,29.314 0,26 V 6 C 0,2.686 2.686,0 6,0 h 20 c 3.314,0 6,2.686 6,6 v 20 c 0,3.314 -2.686,6 -6,6 z"
       data-original="#FFF9DD"
       class="active-path"
       style="fill:#d50283"
       data-old_color="#fff9dd"
       id="path2"
       inkscape:connector-curvature="0" />
    <path
       d="M 20.833,9.333 H 20.1 C 19.88,8.567 19.173,8 18.333,8 17.493,8 16.786,8.567 16.566,9.333 h -0.733 c -0.273,0 -0.5,0.227 -0.5,0.5 v 1 c 0,0.64 0.527,1.167 1.167,1.167 h 3.667 c 0.64,0 1.167,-0.527 1.167,-1.167 v -1 c -0.001,-0.273 -0.227,-0.5 -0.501,-0.5 z"
       data-original="#FFE777"
       class=""
       style="fill:#ffffff"
       data-old_color="#ffe777"
       id="path4"
       inkscape:connector-curvature="0" />
    <path
       d="M 22.167,10 H 22 v 0.833 c 0,1.013 -0.82,1.833 -1.833,1.833 H 16.5 c -1.013,0 -1.833,-0.82 -1.833,-1.833 V 10 H 14.5 c -1.013,0 -1.833,0.82 -1.833,1.833 v 4.053 h 0.007 c 0.92,0.073 1.573,0.247 2.107,0.467 0.093,-0.113 0.233,-0.187 0.387,-0.187 H 21.5 c 0.273,0 0.5,0.227 0.5,0.5 0,0.273 -0.227,0.5 -0.5,0.5 h -4.653 c 0.873,0.153 1.96,0.453 2.6,1.167 H 21.5 c 0.113,0 0.22,0.04 0.307,0.107 0.3,-0.067 0.587,-0.107 0.86,-0.107 0.493,0 0.947,0.107 1.333,0.293 V 11.833 C 24,10.82 23.18,10 22.167,10 Z M 21.5,15 h -6.333 c -0.273,0 -0.5,-0.227 -0.5,-0.5 0,-0.273 0.227,-0.5 0.5,-0.5 H 21.5 c 0.273,0 0.5,0.227 0.5,0.5 0,0.273 -0.227,0.5 -0.5,0.5 z"
       data-original="#FFE777"
       class=""
       style="fill:#ffffff"
       data-old_color="#ffe777"
       id="path6"
       inkscape:connector-curvature="0" />
    <g
       id="g12"
       style="fill:#ffd200">
      <path
         d="M 8.328,16.001 C 8.146,16.005 8,16.153 8,16.335 V 22.5 c 0,0.092 0.075,0.167 0.167,0.167 h 1.581 c 0.149,0 0.28,-0.099 0.321,-0.242 l 1.475,-5.199 C 11.639,16.89 11.459,16.537 11.131,16.418 10.527,16.197 9.6,15.98 8.328,16.001 Z"
         data-original="#FFD200"
         class=""
         style="fill:#ffffff"
         data-old_color="#FFD200"
         id="path8"
         inkscape:connector-curvature="0" />
      <path
         d="m 22.667,19.667 c -1.333,0 -4,1.688 -5.333,1.688 -1.333,0 -2.834,-1.022 -2.834,-1.022 0,0 1.796,0.333 2.833,0.333 1.037,0 1.333,-0.354 1.333,-0.833 0,-1.167 -1.982,-1.348 -2.984,-1.5 -0.984,-0.548 -1.495,-0.981 -3.125,-1.119 -0.01,0.095 -0.025,0.189 -0.051,0.284 l -1.339,4.72 c 1.517,0.689 4.129,1.782 5.5,1.782 2,0 7.333,-2.667 7.333,-3.333 0,-0.667 -0.667,-1 -1.333,-1 z"
         data-original="#FFD200"
         class=""
         style="fill:#ffffff"
         data-old_color="#FFD200"
         id="path10"
         inkscape:connector-curvature="0" />
    </g>
  </g>
</svg>
