<?xml version="1.0"?>
<svg xmlns="http://www.w3.org/2000/svg" id="bold" enable-background="new 0 0 32 32" height="512px" viewBox="0 0 32 32" width="512px" class=""><g><path d="m26 32h-20c-3.314 0-6-2.686-6-6v-20c0-3.314 2.686-6 6-6h20c3.314 0 6 2.686 6 6v20c0 3.314-2.686 6-6 6z" fill="#ffe6e2" data-original="#FFE6E2" class="active-path" style="fill:#D50283" data-old_color="#ffe6e2"/><path d="m20.167 10h-.167v.833c0 1.011-.822 1.833-1.833 1.833h-4.333c-1.011 0-1.833-.822-1.833-1.833v-.833h-.167c-1.012 0-1.834.822-1.834 1.833v10.333c0 1.012.822 1.834 1.833 1.834h8.333c1.012 0 1.834-.822 1.834-1.833v-10.334c0-1.011-.822-1.833-1.833-1.833zm-.167 9.167c0 .276-.224.5-.5.5h-2.833v.477l1.203.802c.307.204.389.618.185.924-.128.193-.34.297-.555.297-.127 0-.255-.036-.369-.112l-1.131-.754-1.13.754c-.307.204-.721.121-.924-.185-.204-.306-.122-.72.185-.924l1.203-.802v-.477h-2.834c-.276 0-.5-.224-.5-.5v-4.333c0-.276.224-.5.5-.5h7c.276 0 .5.224.5.5z" fill="#fc573b" data-original="#FC573B" class="" style="fill:#FFFFFF" data-old_color="#fc573b"/><path d="m18.167 12h-4.333c-.643 0-1.167-.523-1.167-1.167v-1c0-.276.224-.5.5-.5h1.069c.218-.768.926-1.333 1.764-1.333s1.546.565 1.764 1.333h1.069c.276 0 .5.224.5.5v1c0 .644-.523 1.167-1.166 1.167z" fill="#fd907e" data-original="#FD907E" class="" data-old_color="#fd907e" style="fill:#FFFFFF"/></g> </svg>
